<?xml version="1.0" standalone="no"?>
<!DOCTYPE svg PUBLIC "-//W3C//DTD SVG 20010904//EN"
 "http://www.w3.org/TR/2001/REC-SVG-20010904/DTD/svg10.dtd">
<svg version="1.0" xmlns="http://www.w3.org/2000/svg"
 width="24.000000pt" height="24.000000pt" viewBox="0 0 24.000000 24.000000"
 preserveAspectRatio="xMidYMid meet">
<metadata>
Created by potrace 1.16, written by Peter Selinger 2001-2019
</metadata>
<g transform="translate(0.000000,24.000000) scale(0.018750,-0.018750)"
fill="#000000" stroke="none">
<path d="M541 1144 c-140 -37 -262 -138 -326 -268 -31 -62 -40 -73 -49 -61
-10 13 -16 12 -49 -10 -23 -16 -35 -31 -31 -38 4 -7 25 -38 46 -69 48 -72 67
-74 155 -17 35 23 63 43 63 45 0 16 -48 73 -57 69 -48 -17 50 132 121 185 94
71 136 84 266 85 110 0 118 -1 183 -33 220 -108 311 -366 205 -582 -129 -263
-479 -324 -689 -119 -28 27 -53 49 -57 49 -4 0 -20 -10 -36 -23 -36 -29 -29
-45 45 -110 99 -87 210 -127 349 -127 153 0 266 46 370 150 68 68 120 158 139
240 15 64 13 206 -3 266 -47 176 -195 323 -371 369 -73 19 -202 18 -274 -1z"/>
<path d="M640 767 l0 -153 65 -64 65 -65 32 33 32 32 -57 58 -57 58 0 127 0
127 -40 0 -40 0 0 -153z"/>
</g>
</svg>
