<?xml version="1.0" standalone="no"?>
<!DOCTYPE svg PUBLIC "-//W3C//DTD SVG 20010904//EN"
 "http://www.w3.org/TR/2001/REC-SVG-20010904/DTD/svg10.dtd">
<svg version="1.0" xmlns="http://www.w3.org/2000/svg"
 width="24.000000pt" height="24.000000pt" viewBox="0 0 24.000000 24.000000"
 preserveAspectRatio="xMidYMid meet">
<metadata>
Created by potrace 1.16, written by Peter Selinger 2001-2019
</metadata>
<g transform="translate(0.000000,24.000000) scale(0.018750,-0.018750)"
fill="#000000" stroke="none">
<path d="M480 1170 c0 -63 2 -70 20 -70 17 0 20 7 20 50 l0 50 220 0 220 0 0
-120 0 -120 120 0 120 0 0 -370 0 -370 -300 0 c-293 0 -300 0 -300 -20 0 -20
7 -20 320 -20 l320 0 0 408 0 407 -123 123 -122 122 -258 0 -257 0 0 -70z"/>
<path d="M303 1041 c-105 -39 -180 -107 -231 -211 -25 -50 -27 -65 -27 -170 0
-105 2 -120 27 -170 51 -104 143 -186 241 -215 30 -9 43 -18 45 -34 3 -16 -2
-21 -17 -21 -20 0 -21 -6 -21 -90 0 -83 1 -90 20 -90 18 0 20 7 20 70 l0 70
80 0 80 0 0 -70 c0 -63 2 -70 20 -70 19 0 20 7 20 90 0 84 -1 90 -21 90 -15 0
-20 5 -17 21 2 15 18 26 56 39 126 44 217 147 258 288 2 7 20 12 44 12 33 0
40 3 40 20 0 17 -7 20 -40 20 l-40 0 0 60 0 60 60 0 c53 0 60 2 60 20 0 18 -7
20 -60 20 -50 0 -60 -3 -61 -17 0 -10 -6 1 -14 24 -31 100 -112 190 -215 241
-74 36 -227 43 -307 13z m264 -53 c42 -15 75 -38 119 -82 75 -75 104 -143 104
-246 0 -103 -29 -171 -104 -246 -44 -44 -77 -67 -119 -82 -78 -29 -176 -29
-254 0 -80 29 -172 121 -201 201 -29 78 -29 176 0 254 29 78 121 171 198 201
76 29 180 29 257 0z"/>
<path d="M334 969 c-82 -24 -181 -124 -204 -207 -17 -62 -12 -166 11 -227 28
-75 99 -146 176 -175 79 -30 196 -26 267 9 110 54 169 147 174 276 5 106 -21
177 -88 245 -64 63 -135 90 -233 89 -40 0 -86 -5 -103 -10z m205 -56 c182 -65
231 -324 86 -452 -58 -51 -110 -71 -185 -71 -155 0 -270 116 -270 270 1 136
90 244 223 269 49 9 86 5 146 -16z"/>
</g>
</svg>
