<?xml version="1.0" standalone="no"?>
<!DOCTYPE svg PUBLIC "-//W3C//DTD SVG 20010904//EN"
 "http://www.w3.org/TR/2001/REC-SVG-20010904/DTD/svg10.dtd">
<svg version="1.0" xmlns="http://www.w3.org/2000/svg"
 width="24.000000pt" height="24.000000pt" viewBox="0 0 24.000000 24.000000"
 preserveAspectRatio="xMidYMid meet">
<metadata>
Created by potrace 1.16, written by Peter Selinger 2001-2019
</metadata>
<g transform="translate(0.000000,24.000000) scale(0.018750,-0.018750)"
fill="#000000" stroke="none">
<path d="M485 1266 c-135 -44 -189 -122 -190 -276 0 -74 -3 -89 -23 -115 -33
-42 -27 -118 12 -152 15 -13 36 -23 46 -23 13 0 26 -17 44 -55 26 -57 49 -76
69 -56 8 8 5 21 -10 48 -11 21 -24 48 -27 60 -7 22 -7 22 30 7 68 -28 141 -2
171 61 21 44 45 44 66 0 30 -63 103 -89 170 -61 42 17 42 18 21 -32 -19 -47
-68 -98 -119 -125 -56 -30 -155 -29 -212 1 -52 27 -73 28 -73 2 0 -13 14 -27
41 -41 40 -20 41 -21 23 -38 -21 -20 -157 -56 -162 -44 -1 5 -17 35 -35 68
-38 71 -70 88 -111 61 -33 -21 -33 -52 -1 -116 l25 -49 -35 -11 c-53 -18 -65
-42 -65 -135 0 -93 7 -105 62 -105 21 0 38 -4 38 -10 0 -5 -26 -10 -57 -10
-77 0 -85 -7 -81 -66 l3 -49 438 -3 c432 -2 437 -2 437 18 0 20 -6 20 -415 20
-362 0 -415 2 -415 15 0 13 61 15 490 15 429 0 490 -2 490 -15 0 -12 -13 -15
-55 -15 -49 0 -55 -2 -55 -20 0 -19 5 -21 78 -18 l77 3 3 49 c4 59 -4 66 -79
66 l-56 0 -5 73 c-6 86 -30 138 -87 190 -36 33 -118 67 -161 67 -9 0 -25 9
-34 19 -17 19 -17 20 21 39 52 28 108 88 133 145 12 26 28 47 36 47 9 0 29 13
45 29 23 24 29 38 29 73 0 25 -7 54 -17 68 -14 19 -18 46 -18 115 -1 70 -5
100 -22 136 -23 52 -39 67 -56 50 -8 -8 -4 -29 12 -77 19 -51 22 -78 18 -124
-6 -70 -28 -102 -45 -67 -6 12 -13 44 -16 71 -11 94 -48 118 -145 95 -71 -17
-111 -17 -182 0 -99 24 -136 -2 -146 -103 -6 -60 -20 -80 -43 -66 -11 7 -15
30 -15 92 0 104 24 155 91 198 83 52 252 63 357 24 23 -9 55 -18 70 -21 48 -9
30 28 -28 57 -45 22 -64 25 -180 27 -86 2 -143 -2 -170 -11z m129 -253 c43 -3
90 0 124 8 53 12 55 12 73 -10 34 -41 25 -58 -31 -63 -56 -6 -90 -30 -110 -79
-16 -37 -44 -37 -60 0 -20 49 -54 73 -110 79 -55 5 -63 19 -34 61 13 19 22 22
48 16 17 -3 62 -9 100 -12z m-69 -138 c50 -49 15 -135 -55 -135 -41 0 -80 39
-80 80 0 41 39 80 80 80 19 0 40 -9 55 -25z m300 0 c16 -15 25 -36 25 -55 0
-19 -9 -40 -25 -55 -15 -16 -36 -25 -55 -25 -19 0 -40 9 -55 25 -16 15 -25 36
-25 55 0 19 9 40 25 55 15 16 36 25 55 25 19 0 40 -9 55 -25z m-311 -515 c41
-46 71 -51 88 -15 6 14 14 25 18 25 4 0 12 -11 18 -25 17 -36 47 -31 88 15 40
44 42 45 97 29 86 -23 146 -111 147 -211 l0 -58 -249 0 -249 0 -7 37 c-3 20
-26 76 -51 124 -45 91 -45 94 4 109 47 14 59 11 96 -30z m-226 -97 l3 -73 -61
0 -60 0 0 65 c0 74 11 86 75 82 l40 -2 3 -72z"/>
</g>
</svg>
